<?xml version="1.0" encoding="iso-8859-1"?>
<!-- Generator: Adobe Illustrator 19.0.0, SVG Export Plug-In . SVG Version: 6.00 Build 0)  -->
<svg version="1.1" id="Layer_1" xmlns="http://www.w3.org/2000/svg" xmlns:xlink="http://www.w3.org/1999/xlink" x="0px" y="0px"
	 viewBox="0 0 512 512" style="enable-background:new 0 0 512 512;" xml:space="preserve">
<g>
	<path style="fill:#2BA5F7;" d="M198.932,72.238c14.117,0,25.551,11.446,25.551,25.563s-11.434,25.563-25.551,25.563
		c-14.117,0-25.563-11.446-25.563-25.563S184.815,72.238,198.932,72.238z"/>
	<circle style="fill:#2BA5F7;" cx="109.457" cy="123.363" r="25.563"/>
</g>
<path style="fill:#F7B239;" d="M499.033,58.097c1.488,4.089,0.48,8.669-2.601,11.739l-3.96,3.96l-19.213,19.225l-19.225,19.213
	l-4.581,4.592c-5.577,5.565-14.597,5.565-20.174,0L395.223,82.77c-5.565-5.577-5.565-14.609,0-20.174l4.592-4.581l19.213-19.225
	l19.225-19.225l3.96-3.96c3.069-3.069,7.65-4.089,11.739-2.601l28.152,10.263c3.105,1.125,5.541,3.573,6.678,6.678L499.033,58.097z"
	/>
<polygon style="fill:#B27214;" points="320.584,232.54 299.426,254.928 257.122,212.623 279.498,191.465 394.883,82.43 
	395.223,82.77 429.28,116.827 429.608,117.155 "/>
<path style="fill:#F7B239;" d="M320.584,232.54c22.564,37.337,21.299,82.324-6.092,109.703c-7.966,7.978-17.433,13.73-27.765,17.327
	c-26.77,9.349-45.842,33.213-48.959,61.4c-2.343,21.041-10.919,40.524-26.02,55.625c-40.617,40.617-113.018,34.092-161.708-14.597
	C1.363,413.32-5.162,340.907,35.455,300.301c15.101-15.113,34.584-23.677,55.625-26.02c28.187-3.105,52.063-22.177,61.4-48.959
	c3.597-10.333,9.361-19.787,17.327-27.754c27.379-27.379,72.366-28.668,109.691-6.104l-22.376,21.158l42.304,42.304L320.584,232.54z
	"/>
<g>
	<path style="fill:#FFFFFF;" d="M43.538,410.91c-3.526,0-6.854-2.138-8.2-5.626c-3.651-9.46-5.946-19.183-6.822-28.897
		c-2.231-24.735,5.087-46.904,20.606-62.423c11.461-11.461,26.698-18.537,44.065-20.464c9.555-1.054,18.869-3.602,27.688-7.575
		c4.423-1.992,9.627-0.022,11.619,4.403s0.022,9.627-4.403,11.619c-10.498,4.728-21.593,7.763-32.973,9.018
		c-13.352,1.482-24.963,6.816-33.572,15.424c-11.769,11.769-17.285,28.965-15.53,48.419c0.73,8.088,2.652,16.213,5.714,24.149
		c1.747,4.528-0.507,9.614-5.034,11.36C45.659,410.72,44.59,410.91,43.538,410.91z"/>
	<path style="fill:#FFFFFF;" d="M183.419,234.121c-1.586,0-3.19-0.429-4.636-1.329c-4.12-2.564-5.38-7.983-2.815-12.103
		c2.129-3.42,4.656-6.6,7.51-9.455c8.552-8.552,20.038-13.941,33.214-15.585c4.823-0.596,9.206,2.816,9.807,7.631
		c0.601,4.815-2.815,9.206-7.631,9.807c-9.261,1.155-17.203,4.811-22.965,10.573c-1.907,1.907-3.595,4.032-5.018,6.317
		C189.222,232.652,186.354,234.121,183.419,234.121z"/>
	<path style="fill:#FFFFFF;" d="M419.243,80.822c-2.248,0-4.498-0.858-6.214-2.574c-3.431-3.431-3.431-8.995,0-12.425l33.975-33.975
		c3.433-3.431,8.995-3.431,12.427,0s3.431,8.995,0,12.425l-33.975,33.975C423.741,79.963,421.491,80.822,419.243,80.822z"/>
</g>
<path style="fill:#F95428;" d="M263.39,292.897c-2.413-24.954-23.442-44.46-49.041-44.46c-13.613,0-25.938,5.518-34.842,14.433
	c-8.915,8.915-14.433,21.24-14.433,34.83c0,25.598,19.506,46.627,44.472,49.041c1.582,0.152,3.187,0.234,4.803,0.234
	c13.602,0,25.914-5.518,34.83-14.433c8.927-8.904,14.445-21.228,14.445-34.842C263.624,296.084,263.542,294.479,263.39,292.897z"/>
<path style="fill:#E54728;" d="M263.39,292.897c-2.413-24.954-23.442-44.46-49.041-44.46c-4.667,0-9.178,0.663-13.457,1.874
	c19.172,5.443,33.581,22.191,35.553,42.585c0.152,1.582,0.234,3.187,0.234,4.803c0,13.613-5.518,25.938-14.445,34.842
	c-5.855,5.855-13.182,10.231-21.37,12.555c2.801,0.795,5.702,1.355,8.683,1.644c1.582,0.152,3.187,0.234,4.803,0.234
	c13.602,0,25.914-5.518,34.83-14.433c8.927-8.904,14.445-21.228,14.445-34.842C263.624,296.084,263.542,294.479,263.39,292.897z"/>
<circle style="fill:#FFFFFF;" cx="146.922" cy="280.103" r="8.787"/>
<g>
	<path style="fill:#333333;" d="M214.349,239.646c-32.012,0-58.057,26.044-58.057,58.057c0,32.013,26.044,58.058,58.057,58.058
		c32.013,0,58.058-26.044,58.058-58.058C272.407,265.691,246.363,239.646,214.349,239.646z M218.333,314.123l17.725,17.724
		c-5.223,3.332-11.251,5.506-17.729,6.141L218.333,314.123z M230.745,301.682h23.892c-0.635,6.483-2.813,12.517-6.149,17.743
		L230.745,301.682z M252.479,284.108h-39.307l-20.543-20.543c6.282-4.011,13.732-6.347,21.72-6.347
		C231.905,257.219,246.88,268.454,252.479,284.108z M173.865,297.703c0-7.984,2.333-15.43,6.339-21.709l20.559,20.559l-0.007,39.279
		C185.102,330.234,173.865,315.26,173.865,297.703z"/>
	<path style="fill:#333333;" d="M77.069,378.356c-3.431-3.431-8.995-3.431-12.425,0c-3.431,3.431-3.431,8.995,0,12.425
		l56.623,56.623c1.715,1.715,3.964,2.574,6.213,2.574s4.498-0.858,6.213-2.574c3.431-3.431,3.431-8.995,0-12.425L77.069,378.356z"/>
	<path style="fill:#333333;" d="M509.427,78.319l-4.713-4.712c3.816-5.306,4.856-12.265,2.579-18.515l-10.254-28.151
		c-2.024-5.557-6.371-9.905-11.93-11.931L456.955,4.755c-6.253-2.277-13.21-1.236-18.514,2.58l-4.712-4.712
		c-3.433-3.431-8.995-3.431-12.427,0c-3.431,3.431-3.431,8.995,0,12.425l4.523,4.523l-6.794,6.794l-4.522-4.522
		c-3.433-3.431-8.995-3.431-12.427,0s-3.431,8.995,0,12.425l4.523,4.523l-6.794,6.794l-4.523-4.523
		c-3.433-3.431-8.995-3.431-12.427,0s-3.431,8.995,0,12.425l4.603,4.603c-3.371,4.106-5.203,9.207-5.203,14.589
		c0,2.84,0.532,5.593,1.509,8.171l-105.595,99.783c-18.276-9.717-38.516-14.542-57.671-13.625
		c-22.374,1.07-42.054,9.487-56.91,24.343c-8.747,8.748-15.279,19.205-19.41,31.074c-8.184,23.476-29.407,40.402-54.076,43.118
		c-23.813,2.652-44.861,12.521-60.865,28.539C7.724,315.602-2.481,345.727,0.512,378.912c2.939,32.591,18.323,64.305,43.316,89.298
		c28.875,28.875,65.776,43.743,100.425,43.741c27.79-0.001,54.133-9.568,73.709-29.143c16.021-16.021,25.89-37.069,28.54-60.872
		c2.725-24.65,19.65-45.874,43.114-54.068c11.906-4.145,22.368-10.677,31.088-19.411c14.862-14.855,23.28-34.536,24.343-56.915
		c0.911-19.155-3.915-39.393-13.632-57.675l99.786-105.599c2.627,0.991,5.393,1.507,8.166,1.507c5.179,0,10.359-1.733,14.587-5.195
		l4.605,4.605c1.716,1.716,3.964,2.574,6.214,2.574c2.248,0,4.498-0.858,6.213-2.574c3.433-3.431,3.433-8.994,0.001-12.425
		l-4.523-4.523l6.794-6.794l4.522,4.522c1.716,1.715,3.966,2.574,6.214,2.574c2.248,0,4.498-0.858,6.214-2.574
		c3.431-3.431,3.431-8.995,0-12.425l-4.523-4.523l6.794-6.794l4.522,4.522c1.716,1.715,3.966,2.574,6.214,2.574
		c2.248,0,4.498-0.858,6.214-2.574C512.857,87.313,512.857,81.75,509.427,78.319z M308.274,336.035
		c-6.835,6.845-15.058,11.972-24.444,15.241c-29.823,10.415-51.33,37.393-54.794,68.722c-2.204,19.792-10.329,37.214-23.5,50.384
		c-37.133,37.133-104.099,30.583-149.282-14.597c-22.089-22.089-35.67-49.951-38.24-78.451
		c-2.515-27.904,5.885-53.054,23.658-70.822c13.156-13.167,30.578-21.293,50.371-23.496c31.353-3.454,58.333-24.964,68.735-54.803
		c3.256-9.351,8.384-17.571,15.242-24.43c21.37-21.37,56.534-25.07,88.56-10.298l-13.494,12.752
		c-1.725,1.631-2.717,3.888-2.751,6.262c-0.034,2.372,0.894,4.659,2.573,6.337l42.304,42.304c1.65,1.65,3.885,2.574,6.214,2.574
		c0.041,0,0.082,0,0.124-0.001c2.372-0.033,4.631-1.025,6.262-2.751l12.756-13.498C333.345,279.505,329.647,314.672,308.274,336.035
		z M299.247,242.322L269.725,212.8L394.717,94.689l22.642,22.642L299.247,242.322z M435.496,110.611l-34.057-34.058
		c-1.034-1.034-1.604-2.409-1.604-3.871s0.569-2.836,1.604-3.871l46.986-46.987c0.457-0.457,1.073-0.702,1.7-0.702
		c0.274,0,0.551,0.047,0.815,0.144l28.152,10.256c0.667,0.244,1.189,0.765,1.433,1.433l10.256,28.153
		c0.318,0.872,0.098,1.859-0.559,2.516l0,0l-3.96,3.96l-38.435,38.436c-0.001,0.001-0.003,0.002-0.005,0.005
		s-4.585,4.587-4.585,4.587C441.103,112.744,437.629,112.744,435.496,110.611z"/>
	<path style="fill:#333333;" d="M109.465,157.711c18.939,0,34.347-15.408,34.347-34.347V57.569l71.89-20.541v30.817
		c-4.965-2.792-10.684-4.391-16.774-4.391c-18.939,0-34.347,15.408-34.347,34.347s15.408,34.347,34.347,34.347
		s34.347-15.408,34.347-34.347V25.381c0-2.758-1.293-5.354-3.495-7.015c-2.201-1.66-5.054-2.192-7.705-1.434l-89.463,25.561
		c-3.772,1.078-6.372,4.526-6.372,8.448v42.466c-4.965-2.791-10.684-4.391-16.774-4.391c-18.939,0-34.347,15.408-34.347,34.347
		S90.526,157.711,109.465,157.711z M198.927,114.577c-9.249,0-16.774-7.525-16.774-16.774s7.525-16.774,16.774-16.774
		c9.249,0,16.774,7.525,16.774,16.774S208.176,114.577,198.927,114.577z M109.465,106.59c9.249,0,16.774,7.525,16.774,16.774
		s-7.525,16.774-16.774,16.774s-16.774-7.525-16.774-16.774S100.215,106.59,109.465,106.59z"/>
</g>
<g>
</g>
<g>
</g>
<g>
</g>
<g>
</g>
<g>
</g>
<g>
</g>
<g>
</g>
<g>
</g>
<g>
</g>
<g>
</g>
<g>
</g>
<g>
</g>
<g>
</g>
<g>
</g>
<g>
</g>
</svg>
